<?xml version="1.0" encoding="UTF-8" standalone="no"?>
<!-- Generator: Adobe Illustrator 16.0.0, SVG Export Plug-In . SVG Version: 6.00 Build 0)  -->

<svg
   xmlns:dc="http://purl.org/dc/elements/1.1/"
   xmlns:cc="http://creativecommons.org/ns#"
   xmlns:rdf="http://www.w3.org/1999/02/22-rdf-syntax-ns#"
   xmlns:svg="http://www.w3.org/2000/svg"
   xmlns="http://www.w3.org/2000/svg"
   xmlns:sodipodi="http://sodipodi.sourceforge.net/DTD/sodipodi-0.dtd"
   xmlns:inkscape="http://www.inkscape.org/namespaces/inkscape"
   version="1.1"
   id="Layer_1"
   x="0px"
   y="0px"
   width="511.27716"
   height="260.87506"
   viewBox="0 0 511.27716 260.87506"
   enable-background="new 0 0 612 792"
   xml:space="preserve"
   inkscape:version="0.48.2 r9819"
   sodipodi:docname="The Incredibles logo.svg"><metadata
   id="metadata21"><rdf:RDF><cc:Work
       rdf:about=""><dc:format>image/svg+xml</dc:format><dc:type
         rdf:resource="http://purl.org/dc/dcmitype/StillImage" /></cc:Work></rdf:RDF></metadata><defs
   id="defs19">
	
	
	
	
	
	
</defs><sodipodi:namedview
   pagecolor="#ffffff"
   bordercolor="#666666"
   borderopacity="1"
   objecttolerance="10"
   gridtolerance="10"
   guidetolerance="10"
   inkscape:pageopacity="0"
   inkscape:pageshadow="2"
   inkscape:window-width="1600"
   inkscape:window-height="837"
   id="namedview17"
   showgrid="false"
   inkscape:zoom="1.4142136"
   inkscape:cx="182.17949"
   inkscape:cy="106.67048"
   inkscape:window-x="-8"
   inkscape:window-y="-8"
   inkscape:window-maximized="1"
   inkscape:current-layer="Layer_1"
   fit-margin-top="0"
   fit-margin-left="0"
   fit-margin-right="0"
   fit-margin-bottom="0" />
<path
   style="fill-rule:evenodd"
   inkscape:connector-curvature="0"
   id="path7"
   d="m 254.74548,167.14809 c 66.40133,0 120.6686,-33.83923 120.6686,-75.08224 0,-41.37101 -54.26727,-75.08223 -120.6686,-75.08223 -66.52643,0 -120.79661,33.71122 -120.79661,75.08223 0,41.24301 54.27018,75.08224 120.79661,75.08224 l 0,0 z"
   clip-rule="evenodd" /><path
   style="fill:#f15f27;fill-rule:evenodd"
   inkscape:connector-curvature="0"
   id="path11"
   d="m 231.25119,167.9161 c -55.93131,-7.15069 -98.32343,-38.56368 -98.32343,-75.72225 0,-35.75344 38.94478,-66.01732 91.30074,-74.82622 -1.91713,3.82844 -3.06624,8.1718 -3.06624,12.76825 0,6.25467 1.98453,11.85952 5.05077,16.71198 -40.86191,7.65979 -70.81209,31.04462 -70.81209,58.49826 0,28.34675 32.4341,52.48105 75.85025,59.11973 l 0,3.45025 z m 44.81544,0.38401 c 57.84553,-6.12958 102.28278,-38.05167 102.28278,-76.10626 0,-37.92367 -43.54415,-69.46466 -100.36565,-76.23134 0.5091,1.14911 1.02111,2.42623 1.53021,3.70334 43.67215,6.51068 76.23135,30.64498 76.23135,59.24774 0,29.49586 -34.22323,54.01126 -79.6816,59.75974 l 0,29.62678 0.003,0 z"
   clip-rule="evenodd"
   sodipodi:nodetypes="cscscsccccsccscccc" /><path
   style="fill-rule:evenodd"
   inkscape:connector-curvature="0"
   id="path15"
   d="m 511.27717,231.76029 v 3.19425 c 0,0.6371 0,1.27421 -0.128,1.91422 -1.14912,15.32249 -22.34809,23.75029 -22.34809,23.75029 l -5.74557,-14.17337 c 0,0 4.85246,-0.89602 13.40536,-8.81182 8.42781,-7.91579 -3.70043,-22.98227 -11.36313,-44.18125 -7.6627,-21.32406 20.42804,-40.6059 20.42804,-40.6059 l 5.10847,13.27736 c 0,0 -3.70044,1.15202 -11.10713,9.06781 -7.4067,8.0438 -3.45025,11.36314 1.40221,23.8783 4.34336,11.11004 9.96383,20.04695 10.34784,32.69011 l 0,0 z m -119.39149,27.70674 v -12.51225 c 3.44735,-0.64001 8.17471,-2.93824 7.79071,-10.08893 -0.38401,-7.5347 -4.59646,-9.19291 -7.79071,-9.32092 v -11.74714 c 2.04223,-1.27712 4.08445,-4.72737 4.34045,-12.77117 0.25601,-6.38267 -2.04222,-9.19291 -4.34045,-10.47293 v -10.85113 c 7.91871,-0.128 13.78937,2.55423 15.70359,14.81339 2.04222,12.51225 -2.80733,22.72918 -2.80733,22.72918 0,0 7.9158,5.62048 7.40379,20.94006 -0.63711,15.3254 -16.2156,19.28184 -16.2156,19.28184 h -4.08445 l 0,0 z m 25.92052,-83.63804 v 84.02205 h 28.98677 l -4.85246,-13.66137 h -12.77117 v -73.1651 l -11.36314,2.80442 0,0 z m 32.69011,-6.51068 v 90.53273 h 28.59985 v -14.30138 h -16.4716 v -22.98228 h 15.06939 v -12.77117 h -14.17337 v -30.64497 l 15.57558,-4.46846 0.89602,-13.91737 -29.49587,8.5529 0,0 z m -58.61063,12.38716 v 10.85113 c -2.17022,-1.14912 -4.46845,-0.89311 -4.46845,-0.89311 v 24.7714 c 0,0 2.29823,0.89602 4.46845,-0.6371 v 11.74714 c -2.04222,0 -3.57534,0.51202 -3.57534,0.51202 v 19.27893 c 0,0 1.53312,0.128 3.57534,-0.3811 v 12.51225 h -16.5996 V 184.6408 c 0,0 7.9187,-2.55423 16.08759,-2.93824 0.25601,0.003 0.38401,0.003 0.51201,0.003 l 0,0 z m -60.91176,78.14557 v -14.30138 c 3.45025,-2.93824 6.76959,-8.93691 6.51358,-21.45207 -0.256,-12.13115 -3.32225,-17.23962 -6.51358,-19.40984 v -13.53336 c 0.128,0 0.256,0 0.256,0 4.59937,0 12.00315,6.51067 14.81339,13.53336 2.81024,7.15069 4.46845,19.92185 2.29823,36.13745 -2.29823,16.0876 -15.32249,19.02584 -15.32249,19.02584 h -2.04513 l 0,0 z m 24.3903,-72.1469 v 72.4029 h 12.25916 v -74.31713 l -12.25916,1.91423 0,0 z m -24.3903,3.45025 v 13.53336 c -3.19134,-2.17023 -6.51068,-1.02111 -6.51068,-1.02111 v 44.43434 c 0,0 3.32225,0.12801 6.51068,-2.55423 v 14.30138 H 312.8441 v -67.29444 c 0,0.003 13.28026,-1.3993 18.12982,-1.3993 l 0,0 z m -77.38047,58.10153 v -21.19607 c 2.04513,-1.02402 3.83135,-3.57534 4.21536,-9.96092 0.38401,-7.15069 -1.91422,-10.34494 -4.21536,-11.74715 v -11.23804 h 0.38401 c 0,0 15.9625,0.51201 15.9625,20.94006 0,20.43095 -10.97913,19.66584 -10.97913,19.66584 l 13.53337,23.7503 h -13.02717 l -5.87358,-10.21402 0,0 z m 23.75321,-55.5473 v 66.39842 h 28.09074 v -13.02426 h -16.98361 v -13.15226 h 16.72761 v -12.38716 h -16.2156 v -15.06648 h 15.3254 v -12.51516 l -26.94454,-0.2531 0,0 z M 0,151.7005 v 14.68248 l 7.022687,0.89602 v 91.93784 h 12.00315 v -89.51161 l 6.001575,0.89311 0.256005,-11.87224 c 0,-0.003 -16.218507,-4.22118 -25.283417,-7.0256 l 0,0 z m 253.59345,43.41033 v 11.23804 c -2.04222,-1.27711 -4.21245,-1.02402 -4.21245,-1.02402 v 22.72919 c 0,0 2.17023,1.02111 4.21245,0 v 21.19606 l -4.46845,-7.91871 v 16.98362 h -11.87806 v -64.1002 l 16.34651,0.89602 0,0 z M 32.178101,159.86939 v 99.98165 h 11.49114 v -37.41166 h 12.64316 v 36.77455 h 11.87515 v -90.40472 l -12.25916,-2.29823 v 43.67215 h -11.49114 v -46.73257 l -12.25915,-3.58117 0,0 z m 44.18125,99.08854 H 104.7061 V 245.55257 H 89.383611 V 226.01472 H 104.453 V 213.49956 H 89.639621 v -27.45364 l 15.834499,1.27421 v -9.83002 c 0,0 -19.537849,-4.59645 -28.346749,-6.76668 l -0.76802,88.2345 0,0 z m 54.651279,-86.31737 v 87.21339 h 11.36605 v -90.27672 l -11.36605,3.06333 0,0 z m 21.32406,12.25916 v 74.31421 h 11.87806 v -38.81677 l 15.95959,40.4779 h 10.72604 v -71.7629 h -11.36314 v 35.24144 l -15.8345,-37.15566 -11.36605,-2.29822 0,0 z m 74.95714,26.04852 3.95936,-11.62205 c 0,0 -6.51359,-9.57692 -20.17495,-5.10556 -13.66428,4.59646 -13.02717,23.8783 -12.77117,32.4312 0.25601,8.42489 1.14911,33.19921 18.51383,33.96722 0,0 9.83292,0.89311 14.17628,-7.02268 l -4.34336,-10.85404 c 0,0 -1.78622,3.83135 -4.85246,5.74848 -3.95644,2.42623 -9.57692,0.76802 -10.97913,-8.30271 0,0 -2.04513,-22.34518 -0.64001,-28.60276 1.53312,-6.25758 10.59803,-12.00315 17.11161,-0.6371 l 0,0 z"
   clip-rule="evenodd" />
<path
   style="fill:#fddb22;fill-rule:evenodd"
   inkscape:connector-curvature="0"
   id="path9"
   d="m 251.42614,0 c 16.5996,0 30.00496,13.53628 30.00496,30.13588 0,16.72761 -13.40536,30.26097 -30.00496,30.26097 -16.60252,0 -30.26388,-13.53336 -30.26388,-30.26097 C 221.16226,13.53628 234.82362,0 251.42614,0 l 0,0 z m 24.64049,168.30011 c -6.63868,0.76511 -13.53336,1.14911 -20.42805,1.14911 -8.1718,0 -16.4716,-0.51201 -24.38739,-1.53021 V 84.53406 l 44.81835,-10.21402 v 93.98007 l -0.003,0 z"
   clip-rule="evenodd" /><path
   style="fill:#ffffff;fill-rule:evenodd"
   inkscape:connector-curvature="0"
   id="path13"
   d="m 251.42614,14.68539 c 8.2998,0 15.3254,7.02269 15.3254,15.45049 0,8.55581 -7.0256,15.5785 -15.3254,15.5785 -8.42781,0 -15.4505,-7.02269 -15.4505,-15.5785 0,-8.4278 7.01978,-15.45049 15.4505,-15.45049 l 0,0 z"
   clip-rule="evenodd" /></svg>